<?xml version="1.0" encoding="utf-8"?>
<!-- Generator: Adobe Illustrator 21.0.0, SVG Export Plug-In . SVG Version: 6.00 Build 0)  -->
<svg version="1.1" id="Layer_1" xmlns="http://www.w3.org/2000/svg" xmlns:xlink="http://www.w3.org/1999/xlink" x="0px" y="0px"
	 viewBox="0 0 75 75" style="enable-background:new 0 0 75 75;" xml:space="preserve">
<style type="text/css">
	.st0{fill:#9B9B9B;}
</style>
<path class="st0" d="M37.5,57c0.3,0,0.8-0.2,1-0.4l12.8-12c0.6-0.6,0.6-1.5,0.1-2.1c-0.5-0.6-1.6-0.6-2.1-0.1L39,52V19.5
	c0-0.8-0.7-1.5-1.5-1.5S36,18.7,36,19.5V52l-10.2-9.6c-0.6-0.5-1.6-0.5-2.1,0.1c-0.6,0.6-0.5,1.6,0.1,2.1l12.8,12
	C36.8,56.9,37.1,57,37.5,57z"/>
</svg>
