<?xml version="1.0" encoding="utf-8"?>
<!-- Generator: Adobe Illustrator 21.0.0, SVG Export Plug-In . SVG Version: 6.00 Build 0)  -->
<svg version="1.1" id="Layer_1" xmlns="http://www.w3.org/2000/svg" xmlns:xlink="http://www.w3.org/1999/xlink" x="0px" y="0px"
	 viewBox="0 0 75 75" style="enable-background:new 0 0 75 75;" xml:space="preserve">
<style type="text/css">
	.st0{fill:#F36374;}
</style>
<g>
	<path class="st0" d="M43.1,33.2c0.3,0.3,0.3,0.9,0,1.2c-0.2,0.2-0.4,0.2-0.6,0.2c-0.2,0-0.4-0.1-0.6-0.2l-3.5-3.5
		c-0.3-0.3-0.3-0.9,0-1.2c0.3-0.3,0.9-0.3,1.2,0L43.1,33.2z M43.6,29.8c0.3,0.3,0.3,0.9,0,1.2c-0.2,0.2-0.4,0.2-0.6,0.2
		c-0.2,0-0.4-0.1-0.6-0.2l-0.6-0.6c-0.3-0.3-0.3-0.9,0-1.2c0.3-0.3,0.9-0.3,1.2,0L43.6,29.8z M55.1,19.4c-0.9,0-1.7-0.8-1.7-1.7
		c0-0.9,0.8-1.7,1.7-1.7c0.9,0,1.7,0.8,1.7,1.7C56.8,18.7,56,19.4,55.1,19.4z M55.1,14.4c-1.9,0-3.4,1.5-3.4,3.4
		c0,1.9,1.5,3.4,3.4,3.4s3.4-1.5,3.4-3.4C58.5,15.9,57,14.4,55.1,14.4z M58.2,22.3c-0.9,0.9-2.1,1.7-3.2,2.1c0,0-0.1,0-0.1,0.1
		c-0.5,0.3-0.9,0.5-1.3,0.7c-1.1,0.5-2.1,1-3.7,2.6c-1.9,1.9-2.8,4.5-2.7,7.5c0.1,2.3,0.9,4.6,2.1,6.1l-2,2L29.5,25.5l2-2
		c1.7,1.3,4.1,2.1,6.6,2.1c2.7,0,5.2-1,6.9-2.7c1.6-1.6,2.1-2.6,2.6-3.7c0.2-0.4,0.4-0.8,0.7-1.3c0,0,0-0.1,0.1-0.1
		c0.4-1.2,1.2-2.3,2.1-3.2c1.7-1.7,3.8-2.6,5.8-2.6c1.3,0,2.5,0.4,3.3,1.3C61.7,15.4,61.1,19.5,58.2,22.3z M42.1,48.6L24.2,30.8
		c0,0,0,0,0,0l0,0l0,0l4.1-4.1l17.9,17.9L42.1,48.6z M36.2,52.3c-0.6-0.2-1.6-0.4-3.3-0.5c-0.2,0-0.4,0-0.7,0
		c0.3-0.3,0.3-0.3,0.3-0.3c0.3-0.3,0.3-0.9,0-1.2c-0.3-0.3-0.9-0.3-1.2,0c0,0-0.2,0.2-1.7,1.7c-3.2,0.4-6.9,1.4-8.2,1.8L20.7,53
		c-0.1-1.2,0.1-3.8,2-5.7l7.9-7.9l2.3,2.3l-7.5,7.5c-0.3,0.3-0.3,0.9,0,1.2c0.2,0.2,0.4,0.2,0.6,0.2c0.2,0,0.4-0.1,0.6-0.2l7.5-7.5
		l2.3,2.3l-3.2,3.2c-0.3,0.3-0.3,0.9,0,1.2c0.2,0.2,0.4,0.2,0.6,0.2c0.2,0,0.4-0.1,0.6-0.2l3.2-3.2l2.3,2.3L36.2,52.3z M31.9,56.6
		c-1.6,1.6-2.2,3.6-2.5,5.3l-6.7-6.7c2.3-0.7,7.1-1.9,9.9-1.7c1,0.1,1.6,0.2,2.1,0.2L31.9,56.6z M19.2,43.9l5.5-5.5
		c0.3-0.3,0.3-0.9,0-1.2s-0.9-0.3-1.2,0L19,41.8c-0.6,0.6-3.1,3-4.4,4.8c-0.8-1.9-0.4-4.6,1.2-6.2l7.9-7.9l5.8,5.8l-7.9,7.9
		c-1.5,1.5-2.1,3.3-2.4,4.8c-0.5-0.9-0.9-2-1-3.1C18,46.3,18.4,44.8,19.2,43.9z M60.8,12.1c-1.1-1.1-2.7-1.8-4.5-1.8
		c-2.4,0-5,1.1-7,3.1c-1.1,1.1-1.9,2.4-2.5,3.8c-0.3,0.5-0.5,0.9-0.7,1.3c-0.5,1-0.9,1.9-2.3,3.2c-1.4,1.4-3.4,2.2-5.7,2.2
		c-2.4,0-4.8-0.9-6.1-2.2c-0.2-0.2-0.4-0.2-0.6-0.2c-0.2,0-0.4,0.1-0.6,0.2l-3.2,3.2l-5.3,5.3c-0.2,0.2-0.2,0.4-0.2,0.6
		c0,0.2,0.1,0.4,0.2,0.6l0,0l-7.9,7.9c-2.5,2.5-2.8,7.3-0.5,9.6c0.2,0.2,0.4,0.2,0.6,0.2c0.1,0,0.2,0,0.2,0c0.3-0.1,0.5-0.3,0.6-0.6
		c0.1-0.3,0.4-0.9,0.9-1.5c0,0.4,0,0.8,0,1.2c0.2,2.2,1.3,4.3,2.8,5.9l10.4,10.4c0.2,0.2,0.4,0.2,0.6,0.2c0.1,0,0.3,0,0.4-0.1
		c0.3-0.2,0.5-0.5,0.5-0.9c-0.1-1,0-3.9,2-6l7.9-7.9l0.5,0.5c0.2,0.2,0.4,0.2,0.6,0.2c0.2,0,0.4-0.1,0.6-0.2l5.3-5.3l3.2-3.2
		c0.2-0.2,0.2-0.4,0.2-0.6c0-0.2-0.1-0.4-0.2-0.6c-1.2-1.2-2.1-3.4-2.2-5.6c-0.1-2.5,0.7-4.7,2.2-6.2c1.4-1.4,2.2-1.8,3.2-2.3
		c0.4-0.2,0.8-0.4,1.3-0.7c1.4-0.5,2.7-1.4,3.8-2.5C62.9,20,63.5,14.9,60.8,12.1z"/>
</g>
</svg>
