<svg xmlns="http://www.w3.org/2000/svg" width="30" height="30" viewBox="0 0 30 30">
  <metadata><?xpacket begin="﻿" id="W5M0MpCehiHzreSzNTczkc9d"?>
<x:xmpmeta xmlns:x="adobe:ns:meta/" x:xmptk="Adobe XMP Core 5.6-c138 79.159824, 2016/09/14-01:09:01        ">
   <rdf:RDF xmlns:rdf="http://www.w3.org/1999/02/22-rdf-syntax-ns#">
      <rdf:Description rdf:about=""/>
   </rdf:RDF>
</x:xmpmeta>
                                                                                                    
                                                                                                    
                                                                                                    
                                                                                                    
                                                                                                    
                                                                                                    
                                                                                                    
                                                                                                    
                                                                                                    
                                                                                                    
                                                                                                    
                                                                                                    
                                                                                                    
                                                                                                    
                                                                                                    
                                                                                                    
                                                                                                    
                                                                                                    
                                                                                                    
                                                                                                    
                           
<?xpacket end="w"?></metadata>
<defs>
    <style>
      .cls-1 {
        fill-rule: evenodd;
      }
    </style>
  </defs>
  <path id="instagram" class="cls-1" d="M1130.13,2244.45v1.84a0.538,0.538,0,0,1-.54.54h-1.8a0.538,0.538,0,0,1-.54-0.54v-1.84a0.536,0.536,0,0,1,.54-0.53h1.8A0.536,0.536,0,0,1,1130.13,2244.45Zm-6.91,9.08a2.455,2.455,0,1,0-2.46-2.45A2.456,2.456,0,0,0,1123.22,2253.53ZM1138,2251a15,15,0,1,1-15-15A15.005,15.005,0,0,1,1138,2251Zm-6.35-2.42h-4.92a4.32,4.32,0,1,1-7.04,0h-4.91v7.56a3.346,3.346,0,0,0,3.34,3.34h10.2a3.337,3.337,0,0,0,3.33-3.34v-7.56Zm-8.44,5.82a3.323,3.323,0,0,0,2.19-5.82,3.112,3.112,0,0,0-.82-0.53,3.306,3.306,0,0,0-1.37-.3,3.271,3.271,0,0,0-1.37.3,2.958,2.958,0,0,0-.82.53A3.317,3.317,0,0,0,1123.21,2254.4Zm8.44-8.54a3.331,3.331,0,0,0-3.33-3.34h-9.12v4.21h-0.68v-4.21h-0.48v4.21h-0.68v-4.12a3.368,3.368,0,0,0-.48.15v3.97h-0.69v-3.6a3.352,3.352,0,0,0-1.41,2.73v2.19h5.35a4.31,4.31,0,0,1,6.15,0h5.37v-2.19h0Z" transform="translate(-1108 -2236)"/>
</svg>
