<svg xmlns="http://www.w3.org/2000/svg" width="29.94" height="30" viewBox="0 0 29.94 30">
  <metadata><?xpacket begin="﻿" id="W5M0MpCehiHzreSzNTczkc9d"?>
<x:xmpmeta xmlns:x="adobe:ns:meta/" x:xmptk="Adobe XMP Core 5.6-c138 79.159824, 2016/09/14-01:09:01        ">
   <rdf:RDF xmlns:rdf="http://www.w3.org/1999/02/22-rdf-syntax-ns#">
      <rdf:Description rdf:about=""/>
   </rdf:RDF>
</x:xmpmeta>
                                                                                                    
                                                                                                    
                                                                                                    
                                                                                                    
                                                                                                    
                                                                                                    
                                                                                                    
                                                                                                    
                                                                                                    
                                                                                                    
                                                                                                    
                                                                                                    
                                                                                                    
                                                                                                    
                                                                                                    
                                                                                                    
                                                                                                    
                                                                                                    
                                                                                                    
                                                                                                    
                           
<?xpacket end="w"?></metadata>
<defs>
    <style>
      .cls-1 {
        fill-rule: evenodd;
      }
    </style>
  </defs>
  <path id="linkedin" class="cls-1" d="M1027.04,2236a15,15,0,1,0,14.96,15A14.986,14.986,0,0,0,1027.04,2236Zm-4,22.25h-3.28v-10.64h3.28v10.64Zm-1.65-12.03a1.965,1.965,0,1,1,1.94-1.96A1.955,1.955,0,0,1,1021.39,2246.22Zm13.97,12.03h-3.27v-5.58c0-1.54-.58-2.39-1.79-2.39-1.32,0-2,.89-2,2.39v5.58h-3.16v-10.64h3.16v1.43a3.682,3.682,0,0,1,3.19-1.75c2.26,0,3.87,1.37,3.87,4.22v6.74Z" transform="translate(-1012.06 -2236)"/>
</svg>
