<?xml version="1.0" encoding="utf-8"?>
<!-- Generator: Adobe Illustrator 21.0.0, SVG Export Plug-In . SVG Version: 6.00 Build 0)  -->
<svg version="1.1" id="Layer_1" xmlns="http://www.w3.org/2000/svg" xmlns:xlink="http://www.w3.org/1999/xlink" x="0px" y="0px"
	 viewBox="0 0 75 75" style="enable-background:new 0 0 75 75;" xml:space="preserve">
<style type="text/css">
	.st0{fill:#F16377;}
</style>
<path class="st0" d="M50.2,36.3L42.8,29c0-0.2,0-0.5-0.2-0.6l-3.7-3.7l1.6-1.6l3.7,3.7c0.3,0.3,0.7,0.3,1,0c0.3-0.3,0.3-0.7,0-1
	l-3.7-3.7l1.6-1.6l3.7,3.7c0.3,0.3,0.7,0.3,1,0c0.3-0.3,0.3-0.7,0-1l-3.7-3.7l1.6-1.6l7.1,7.1c0.3,0.3,0.7,0.3,1,0
	c0.3-0.3,0.3-0.7,0-1l-7.1-7.1l1.6-1.6l0.1-0.1l3.7,3.7c0.3,0.3,0.7,0.3,1,0c0.3-0.3,0.3-0.7,0-1L49.5,14l1.6-1.6l3.7,3.7
	c0.3,0.3,0.7,0.3,1,0c0.3-0.3,0.3-0.7,0-1l-3.7-3.7l2.2-2.2l11.5,11.5L50.2,36.3z M56.8,45L45.3,56.5l-6.7-6.7l-1-1L26.1,37.3l-1-1
	l-2.7-2.7c-0.1-0.5-0.2-1.7,0.7-2.6c0.7-0.7,1.7-1,3.3-1c0.4,0,0.7-0.3,0.7-0.6c0,0,0.2-1.4,1.1-2.3c0.5-0.5,1-0.7,1.7-0.6
	c0.2,0,0.4-0.1,0.6-0.3c0.1-0.2,0.2-0.4,0.1-0.6c0,0-0.4-1.6,0.6-2.6c0.6-0.6,1.5-0.9,2.8-0.9l3.7,3.7l11.5,11.5L56.8,45z
	 M20.3,66.2L8.8,54.7l7.8-7.9l3.7,3.7c0.3,0.3,0.7,0.3,1,0c0.3-0.3,0.3-0.7,0-1l-3.7-3.7l1.6-1.6l3.7,3.7c0.3,0.3,0.7,0.3,1,0
	c0.3-0.3,0.3-0.7,0-1l-3.7-3.7l1.6-1.6l3.7,3.7c0.3,0.3,0.7,0.3,1,0c0.3-0.3,0.3-0.7,0-1L23,40.5l1.6-1.6l7.1,7.1
	c0.3,0.3,0.7,0.3,1,0c0,0,0,0,0,0l4,4L20.3,66.2z M21.2,31.3l-0.3-0.6l-6.6-13.4l3.2-3.2L31,20.6l0.9,0.5c-0.7,0.2-1.2,0.6-1.7,1
	c-1,1-1.1,2.2-1.1,3.1c-0.7,0.1-1.4,0.5-2,1c-0.8,0.8-1.2,1.9-1.4,2.5c-1.6,0.1-2.9,0.5-3.7,1.4C21.7,30.4,21.4,30.9,21.2,31.3z
	 M67.3,20.2L54.8,7.7c-0.3-0.3-0.7-0.3-1,0L37.7,23.8L34.8,21c-0.1-0.1-0.1-0.1-0.2-0.2L32.9,20L32,19.5L9.9,8.7
	C9.7,8.5,9.3,8.6,9.1,8.8C8.9,9,8.9,9.3,9,9.6l12.1,24.7c0,0.1,0.1,0.2,0.2,0.2l0,0l2.9,2.8L7.3,54.2c-0.3,0.3-0.3,0.7,0,1
	l12.5,12.5c0.3,0.3,0.7,0.3,1,0l16.8-16.8l7.2,7.2c0.3,0.3,0.7,0.3,1,0l12.5-12.5c0.3-0.3,0.3-0.7,0-1l-7.2-7.2l16.1-16.1
	C67.6,20.9,67.6,20.5,67.3,20.2z"/>
<path class="st0" d="M20.2,58c-0.8,0.8-2.2,0.8-3.1,0c-0.8-0.8-0.8-2.2,0-3.1c0.9-0.9,2.2-0.9,3.1,0C21,55.7,21,57.1,20.2,58z
	 M16.1,53.9c-1.4,1.4-1.4,3.7,0,5.1c1.4,1.4,3.7,1.4,5.1,0c1.4-1.4,1.4-3.7,0-5.1C19.8,52.5,17.5,52.5,16.1,53.9z"/>
<path class="st0" d="M63.6,58l-5.3,5.3c-1.5,1.5-5.2,0.5-7.2-1l11.4-11.4C64.1,52.8,65.1,56.5,63.6,58z M62.2,49.3L49.6,61.8
	c-0.3,0.3-0.3,0.7,0,1c1.4,1.4,4.1,2.6,6.5,2.6c1.3,0,2.4-0.3,3.2-1.2l5.3-5.3c2.3-2.3,0.7-7.5-1.5-9.7C62.9,49,62.4,49,62.2,49.3z"
	/>
<path class="st0" d="M42.7,45.8L29.1,32.2c-0.3-0.3-0.7-0.3-1,0c-0.3,0.3-0.3,0.7,0,1l17.5,17.5c0.3,0.3,0.7,0.3,1,0
	c0.3-0.3,0.3-0.7,0-1L42.7,45.8z"/>
<path class="st0" d="M46.1,40.4L33.4,27.8c-0.3-0.3-0.7-0.3-1,0c-0.3,0.3-0.3,0.7,0,1l17.5,17.5c0.3,0.3,0.7,0.3,1,0
	c0.3-0.3,0.3-0.7,0-1L46.1,40.4z"/>
<path class="st0" d="M61.6,47.8c-0.3-0.3-0.7-0.3-1,0L48.1,60.3c-0.3,0.3-0.3,0.7,0,1c0.3,0.3,0.7,0.3,1,0l12.5-12.5
	C61.9,48.5,61.9,48,61.6,47.8z"/>
<path class="st0" d="M60.1,46.2c-0.3-0.3-0.7-0.3-1,0L46.5,58.7c-0.3,0.3-0.3,0.7,0,1c0.3,0.3,0.7,0.3,1,0l12.5-12.5
	C60.3,46.9,60.3,46.5,60.1,46.2z"/>
</svg>
