<?xml version="1.0" encoding="utf-8"?>
<!-- Generator: Adobe Illustrator 21.0.0, SVG Export Plug-In . SVG Version: 6.00 Build 0)  -->
<svg version="1.1" id="Layer_1" xmlns="http://www.w3.org/2000/svg" xmlns:xlink="http://www.w3.org/1999/xlink" x="0px" y="0px"
	 viewBox="0 0 75 75" style="enable-background:new 0 0 75 75;" xml:space="preserve">
<style type="text/css">
	.st0{fill:#DEC510;}
</style>
<g>
	<path class="st0" d="M37.5,9.7c15.3,0,27.8,12.4,27.8,27.8S52.8,65.3,37.5,65.3S9.7,52.8,9.7,37.5S22.2,9.7,37.5,9.7z M37.5,67.5
		c16.6,0,30-13.4,30-30s-13.4-30-30-30s-30,13.4-30,30S20.9,67.5,37.5,67.5z"/>
	<path class="st0" d="M15.2,30.8h16l-12,21.1c-3.1-4-5-9-5-14.4C14.2,35.2,14.5,32.9,15.2,30.8z M32.3,14.8l7.8,13.8H15.9
		C18.8,21.7,24.8,16.5,32.3,14.8z M37.5,14.2c6.6,0,12.6,2.8,16.8,7.2l-7.9,13.9L34.6,14.4C35.5,14.3,36.5,14.2,37.5,14.2z
		 M55.8,23.2c3.1,4,5,8.9,5,14.3c0,2.3-0.3,4.6-1,6.7h-16L55.8,23.2z M43.3,60.1l-8.1-13.7h23.9C56.3,53.2,50.4,58.3,43.3,60.1z
		 M29.9,37.5l3.8-6.7h7.7l3.8,6.7l-3.8,6.7h-7.4L29.9,37.5z M37.5,60.8c-6.6,0-12.6-2.8-16.8-7.1l7.9-14l12.3,20.8
		C39.8,60.7,38.7,60.8,37.5,60.8z M18.5,54.6c4.8,5.2,11.4,8.4,19,8.4c1.9,0,3.7-0.2,5.4-0.6h0.1c8.7-2,15.8-8.3,18.6-16.7v-0.1
		c1-2.7,1.4-5.3,1.4-8.2c0-6.4-2.4-12.4-6.4-16.9l-0.1-0.1c-4.7-5.2-11.4-8.6-19-8.6c-1.7,0-3.2,0.1-4.8,0.4l0,0
		c-9,1.8-16.4,8.3-19.3,16.9v0.1c-1,2.6-1.4,5.2-1.4,8.1C11.9,44.1,14.4,49.9,18.5,54.6L18.5,54.6z"/>
</g>
</svg>
