<svg xmlns="http://www.w3.org/2000/svg" width="30" height="30" viewBox="0 0 30 30">
  <metadata><?xpacket begin="﻿" id="W5M0MpCehiHzreSzNTczkc9d"?>
<x:xmpmeta xmlns:x="adobe:ns:meta/" x:xmptk="Adobe XMP Core 5.6-c138 79.159824, 2016/09/14-01:09:01        ">
   <rdf:RDF xmlns:rdf="http://www.w3.org/1999/02/22-rdf-syntax-ns#">
      <rdf:Description rdf:about=""/>
   </rdf:RDF>
</x:xmpmeta>
                                                                                                    
                                                                                                    
                                                                                                    
                                                                                                    
                                                                                                    
                                                                                                    
                                                                                                    
                                                                                                    
                                                                                                    
                                                                                                    
                                                                                                    
                                                                                                    
                                                                                                    
                                                                                                    
                                                                                                    
                                                                                                    
                                                                                                    
                                                                                                    
                                                                                                    
                                                                                                    
                           
<?xpacket end="w"?></metadata>
<defs>
    <style>
      .cls-1 {
        fill-rule: evenodd;
      }
    </style>
  </defs>
  <path id="pinterest" class="cls-1" d="M1075,2236a15,15,0,1,0,15,15A15.005,15.005,0,0,0,1075,2236Zm1.97,19.94a3.1,3.1,0,0,1-2.65-1.36s-0.63,2.51-.77,2.99a11.574,11.574,0,0,1-1.96,3.55,0.145,0.145,0,0,1-.26-0.06,12.137,12.137,0,0,1,.04-4.13c0.21-.88,1.39-5.91,1.39-5.91a4.285,4.285,0,0,1-.34-1.72c0-1.61.93-2.81,2.09-2.81a1.449,1.449,0,0,1,1.46,1.63,23.736,23.736,0,0,1-.95,3.85,1.673,1.673,0,0,0,1.71,2.09c2.06,0,3.44-2.64,3.44-5.77,0-2.38-1.6-4.16-4.52-4.16a5.141,5.141,0,0,0-5.34,5.2,3.12,3.12,0,0,0,.72,2.13,0.509,0.509,0,0,1,.15.6c-0.05.2-.17,0.69-0.22,0.88a0.372,0.372,0,0,1-.54.27c-1.52-.62-2.23-2.28-2.23-4.15,0-3.08,2.6-6.78,7.76-6.78,4.15,0,6.88,3,6.88,6.22C1082.83,2252.76,1080.46,2255.94,1076.97,2255.94Z" transform="translate(-1060 -2236)"/>
</svg>
