<?xml version="1.0" encoding="utf-8"?>
<!-- Generator: Adobe Illustrator 21.0.0, SVG Export Plug-In . SVG Version: 6.00 Build 0)  -->
<svg version="1.1" id="Layer_1" xmlns="http://www.w3.org/2000/svg" xmlns:xlink="http://www.w3.org/1999/xlink" x="0px" y="0px"
	 viewBox="0 0 75 75" style="enable-background:new 0 0 75 75;" xml:space="preserve">
<style type="text/css">
	.st0{fill:#DEC510;}
</style>
<path class="st0" d="M65,27.6c-0.5,0-0.9-0.4-1.1-0.8c0-0.1,0-0.2,0-0.3c0-0.6,0.5-1.1,1.1-1.1c0,0,0,0,0.1,0c0.6,0,1,0.5,1,1.1
	C66.1,27.1,65.6,27.6,65,27.6z M51.3,55.5h-7.1v-7.1h7.1V55.5z M36.2,27.6h-7.1v-7.1h7.1V27.6z M21.1,55.5h-7.1v-7.1h7.1V55.5z
	 M10,21.7c-0.6,0-1.1-0.5-1.1-1.1c0-0.6,0.5-1.1,1.1-1.1c0.4,0,0.7,0.2,0.9,0.4c0.1,0.2,0.2,0.4,0.2,0.7c0,0.3-0.1,0.6-0.4,0.8
	C10.5,21.6,10.3,21.7,10,21.7z M65,23.9c-0.9,0-1.7,0.5-2.2,1.2l-25.2-2.5v-2.5c0-0.6-0.5-1.2-1.1-1.2h-7.7c-0.6,0-1.1,0.5-1.1,1.2
	v1.5l-15.1-1.5c-0.2-1.2-1.3-2.1-2.5-2.1c-1.4,0-2.6,1.1-2.6,2.6c0,1.4,1.1,2.6,2.6,2.6c1.1,0,2-0.7,2.4-1.6l15.3,1.5v0.6
	c-3,1.5-5.7,4.5-7.6,8.4c-2,4.1-3.1,9.1-3.1,14.3c0,0.2,0,0.3,0,0.5h-3.2c-0.6,0-1.2,0.5-1.2,1.2v7.8c0,0.6,0.5,1.2,1.2,1.2h7.7
	c0.6,0,1.2-0.5,1.2-1.2V48c0-0.6-0.5-1.2-1.2-1.2h-3.1c0-0.2,0-0.4,0-0.5c0-9.3,3.8-17.7,9.3-20.9v2.5c0,0.6,0.5,1.2,1.1,1.2h7.7
	c0.6,0,1.1-0.5,1.1-1.2v-2.5c5.6,3.2,9.4,11.6,9.4,21c0,0.2,0,0.3,0,0.5h-3.1c-0.6,0-1.2,0.5-1.2,1.2v7.8c0,0.6,0.5,1.2,1.2,1.2h7.7
	c0.6,0,1.2-0.5,1.2-1.2V48c0-0.6-0.5-1.2-1.2-1.2h-3.1c0-0.2,0-0.4,0-0.5c0-5.2-1.1-10.2-3.1-14.3c-1.7-3.5-4.1-6.2-6.8-7.8
	l23.9,2.4c0.1,1.4,1.2,2.4,2.6,2.4c1.4,0,2.6-1.2,2.6-2.6C67.6,25,66.4,23.9,65,23.9z"/>
</svg>
