<?xml version="1.0" encoding="utf-8"?>
<!-- Generator: Adobe Illustrator 21.0.0, SVG Export Plug-In . SVG Version: 6.00 Build 0)  -->
<svg version="1.1" id="Layer_1" xmlns="http://www.w3.org/2000/svg" xmlns:xlink="http://www.w3.org/1999/xlink" x="0px" y="0px"
	 viewBox="0 0 75 75" style="enable-background:new 0 0 75 75;" xml:space="preserve">
<style type="text/css">
	.st0{fill:#F36374;}
</style>
<g>
	<path class="st0" d="M39.1,43.1h7.4c0.5,0,0.8-0.4,0.8-0.8c0-0.5-0.4-0.8-0.8-0.8h-7.4c-0.5,0-0.8,0.4-0.8,0.8
		C38.3,42.7,38.6,43.1,39.1,43.1z"/>
	<path class="st0" d="M39.1,37h13.5c0.5,0,0.8-0.4,0.8-0.8c0-0.5-0.4-0.8-0.8-0.8H39.1c-0.5,0-0.8,0.4-0.8,0.8
		C38.3,36.6,38.6,37,39.1,37z"/>
	<path class="st0" d="M52.6,29.2H39.1c-0.5,0-0.8,0.4-0.8,0.8c0,0.5,0.4,0.8,0.8,0.8h13.5c0.5,0,0.8-0.4,0.8-0.8
		C53.4,29.6,53,29.2,52.6,29.2z"/>
	<path class="st0" d="M23.2,25.5c-0.5,0-0.8,0.4-0.8,0.8v11c0,0.2,0,0.3,0.1,0.4l4.9,7.4c0.3,0.5,1.1,0.5,1.4,0l4.9-7.4
		c0.1-0.1,0.1-0.3,0.1-0.5v-11c0-0.5-0.4-0.8-0.8-0.8c-0.5,0-0.8,0.4-0.8,0.8v9h-3.3v-9c0-0.5-0.4-0.8-0.8-0.8
		c-0.5,0-0.8,0.4-0.8,0.8v9H24v-9C24,25.9,23.6,25.5,23.2,25.5z M32.3,37l-3,4.5h-2.4l-3-4.5H32.3z"/>
	<path class="st0" d="M16.4,49.2h42.9c0.5,0,0.8-0.4,0.8-0.8v-27c0-0.5-0.4-0.8-0.8-0.8H16.4c-0.5,0-0.8,0.4-0.8,0.8v27
		C15.6,48.9,16,49.2,16.4,49.2z M17.2,22.3h41.3v25.3H17.2V22.3z"/>
	<path class="st0" d="M67.5,52.1c0-0.5-0.4-0.8-0.8-0.8h-2.9V20.2c0-2.5-2-4.5-4.5-4.5H16.4c-2.5,0-4.5,2-4.5,4.5v31.1H9.1
		c-0.5,0-0.8,0.4-0.8,0.8v2.5c0,2.5,2,4.5,4.5,4.5H63c2.5,0,4.5-2,4.5-4.5V52.1z M13.6,20.2c0-1.6,1.3-2.9,2.9-2.9h42.9
		c1.6,0,2.9,1.3,2.9,2.9v31.1H47.7c-0.1,0-0.2,0-0.4,0.1L45,52.5H30.7l-2.3-1.1c-0.1-0.1-0.2-0.1-0.4-0.1H13.6V20.2z M65.9,54.5
		c0,1.6-1.3,2.9-2.9,2.9H12.7c-1.6,0-2.9-1.3-2.9-2.9v-1.6h18l2.3,1.1c0.1,0.1,0.2,0.1,0.4,0.1h14.7c0.1,0,0.2,0,0.4-0.1l2.3-1.1h18
		V54.5z"/>
</g>
</svg>
